<svg id="svg" version="1.1" width="400" height="291.8918918918919" viewBox="0 0 400 291.8918918918919" xmlns="http://www.w3.org/2000/svg" xmlns:xlink="http://www.w3.org/1999/xlink"><g id="svgg"><path id="path0" d="M139.124 8.809 C 134.269 9.728,128.964 14.334,127.474 18.924 C 127.229 19.676,126.499 23.708,125.852 27.883 C 123.330 44.142,122.561 49.069,121.862 53.431 C 121.464 55.920,120.756 60.453,120.288 63.504 C 119.821 66.555,118.968 72.073,118.392 75.766 C 117.816 79.460,116.900 85.372,116.356 88.905 C 115.812 92.438,114.763 99.139,114.024 103.796 C 113.285 108.453,112.296 114.759,111.825 117.810 C 111.354 120.861,110.434 126.774,109.780 130.949 C 109.126 135.124,108.131 141.496,107.569 145.109 C 105.419 158.928,104.501 164.801,103.210 172.993 C 102.476 177.650,101.549 183.628,101.149 186.277 C 100.749 188.927,100.232 192.212,100.000 193.577 C 99.768 194.942,99.251 198.226,98.851 200.876 C 98.450 203.526,97.586 209.109,96.931 213.285 C 96.275 217.460,95.215 224.292,94.574 228.467 C 93.934 232.642,92.944 239.080,92.376 242.774 C 91.808 246.467,90.898 252.380,90.356 255.912 C 89.813 259.445,89.022 264.504,88.600 267.153 C 87.061 276.794,88.431 280.977,94.058 283.818 C 96.728 285.166,98.829 285.244,130.511 285.172 L 157.810 285.109 159.854 284.298 C 163.976 282.661,167.673 279.086,169.056 275.399 C 169.736 273.585,170.845 266.935,175.199 238.540 C 175.852 234.285,176.770 228.372,177.239 225.401 C 177.708 222.431,178.755 215.730,179.565 210.511 C 182.063 194.418,183.047 188.099,183.950 182.336 C 185.741 170.904,187.135 161.982,188.171 155.328 C 188.759 151.555,189.750 145.248,190.373 141.314 C 190.997 137.380,191.974 131.139,192.545 127.445 C 193.766 119.557,195.360 109.427,196.383 103.066 C 196.783 100.577,197.492 96.044,197.959 92.993 C 198.426 89.942,199.278 84.489,199.852 80.876 C 200.427 77.263,201.413 71.022,202.043 67.007 C 202.673 62.993,203.728 56.292,204.388 52.117 C 205.047 47.942,205.960 42.095,206.416 39.124 C 206.873 36.153,207.663 31.029,208.173 27.737 C 210.035 15.723,207.599 10.243,199.741 8.763 C 197.700 8.379,141.170 8.422,139.124 8.809 M239.691 10.331 C 235.167 11.905,231.278 15.751,230.077 19.836 C 229.767 20.890,229.170 23.985,228.749 26.715 C 228.329 29.445,227.478 34.898,226.859 38.832 C 226.240 42.766,225.258 49.073,224.676 52.847 C 224.094 56.620,223.233 62.139,222.763 65.109 C 222.292 68.080,221.247 74.781,220.440 80.000 C 219.633 85.219,218.582 91.920,218.104 94.891 C 216.862 102.616,215.100 113.796,213.871 121.752 C 213.288 125.526,212.369 131.438,211.829 134.891 C 211.289 138.343,210.368 144.255,209.782 148.029 C 209.197 151.803,208.392 156.927,207.994 159.416 C 207.595 161.905,206.888 166.438,206.421 169.489 C 205.426 176.001,201.670 200.134,199.990 210.803 C 199.345 214.898,198.362 221.204,197.805 224.818 C 197.248 228.431,196.337 234.277,195.781 237.810 C 194.592 245.364,192.750 257.103,191.498 265.109 C 189.823 275.820,191.083 279.917,196.938 282.791 L 198.686 283.650 230.511 283.728 C 266.527 283.817,264.125 283.963,267.940 281.456 C 273.835 277.582,273.964 277.188,278.248 249.927 C 280.287 236.955,282.009 226.115,282.931 220.438 C 283.414 217.467,284.536 210.372,285.424 204.672 C 286.313 198.971,287.565 190.956,288.207 186.861 C 288.849 182.766,289.753 176.920,290.217 173.869 C 290.681 170.818,291.397 166.153,291.809 163.504 C 294.180 148.246,294.718 144.787,295.899 137.226 C 299.052 117.032,299.611 113.449,300.317 108.905 C 300.729 106.255,301.577 100.869,302.201 96.934 C 303.329 89.823,304.485 82.501,306.419 70.219 C 306.975 66.686,307.950 60.511,308.585 56.496 C 309.220 52.482,310.218 46.109,310.803 42.336 C 311.388 38.562,312.329 32.584,312.895 29.051 C 314.684 17.870,313.401 13.496,307.478 10.586 L 305.839 9.781 273.723 9.723 L 241.606 9.664 239.691 10.331 M199.744 16.369 C 200.626 16.819,201.077 17.315,201.527 18.331 L 202.128 19.691 201.217 25.393 C 200.716 28.529,199.643 35.365,198.833 40.584 C 197.190 51.171,196.169 57.699,194.470 68.467 C 193.836 72.482,192.986 77.869,192.581 80.438 C 192.176 83.007,191.182 89.380,190.372 94.599 C 189.563 99.818,188.574 106.124,188.176 108.613 C 187.778 111.102,187.115 115.307,186.703 117.956 C 186.290 120.606,185.496 125.664,184.938 129.197 C 183.549 137.988,182.215 146.549,180.299 158.978 C 179.407 164.759,178.164 172.708,177.535 176.642 C 176.907 180.577,175.913 186.883,175.326 190.657 C 174.739 194.431,173.813 200.343,173.268 203.796 C 172.281 210.052,171.293 216.399,169.062 230.803 C 167.633 240.027,166.101 249.881,165.088 256.350 C 164.674 259.000,163.955 263.627,163.492 266.634 C 162.580 272.543,162.166 273.727,160.389 275.504 C 157.912 277.981,160.408 277.800,127.445 277.887 C 94.205 277.975,96.847 278.174,95.497 275.486 L 94.789 274.078 95.737 268.061 C 96.258 264.751,96.945 260.401,97.262 258.394 C 97.579 256.387,98.362 251.328,99.002 247.153 C 99.641 242.978,100.549 237.066,101.020 234.015 C 101.838 228.705,102.257 226.024,105.254 206.861 C 105.983 202.204,106.972 195.832,107.452 192.701 C 107.933 189.569,108.851 183.657,109.494 179.562 C 110.136 175.467,111.117 169.161,111.674 165.547 C 112.230 161.934,113.285 155.168,114.017 150.511 C 114.750 145.854,115.799 139.088,116.348 135.474 C 116.898 131.861,117.817 125.949,118.392 122.336 C 119.979 112.356,121.695 101.405,122.487 96.204 C 122.878 93.635,123.798 87.723,124.530 83.066 C 125.262 78.409,126.247 72.102,126.717 69.051 C 127.188 66.000,128.109 60.088,128.763 55.912 C 131.297 39.751,132.311 33.221,133.152 27.645 C 134.305 20.000,135.630 17.568,139.365 16.245 C 141.606 15.450,198.172 15.567,199.744 16.369 M304.685 17.350 C 306.511 18.540,307.050 20.127,306.553 22.850 C 306.370 23.852,305.847 27.102,305.391 30.073 C 304.070 38.684,302.295 50.054,301.015 58.102 C 300.364 62.197,299.448 68.044,298.980 71.095 C 298.511 74.146,297.591 79.993,296.934 84.088 C 296.278 88.182,295.291 94.423,294.740 97.956 C 294.190 101.489,293.204 107.796,292.551 111.971 C 291.898 116.146,290.849 122.912,290.221 127.007 C 289.593 131.102,288.608 137.409,288.033 141.022 C 286.907 148.093,285.529 156.910,283.950 167.153 C 283.405 170.686,282.494 176.533,281.926 180.146 C 281.357 183.759,280.357 190.131,279.702 194.307 C 279.047 198.482,278.055 204.788,277.498 208.321 C 276.940 211.854,276.032 217.635,275.479 221.168 C 274.925 224.701,274.001 230.547,273.425 234.161 C 271.025 249.199,269.992 255.721,268.896 262.774 C 267.366 272.614,266.849 273.819,263.316 275.776 L 261.752 276.642 231.825 276.727 C 198.950 276.821,200.399 276.876,199.003 275.480 C 197.489 273.966,197.473 273.180,198.797 265.088 C 199.438 261.166,200.430 254.934,201.001 251.241 C 203.019 238.182,204.401 229.278,205.261 223.796 C 205.739 220.745,206.723 214.438,207.446 209.781 C 210.344 191.117,210.892 187.598,211.991 180.584 C 213.419 171.459,214.201 166.437,216.055 154.453 C 216.863 149.234,217.783 143.387,218.100 141.460 C 218.418 139.533,219.071 135.328,219.552 132.117 C 220.033 128.905,220.958 122.927,221.609 118.832 C 222.259 114.737,223.243 108.496,223.794 104.964 C 224.346 101.431,225.268 95.584,225.843 91.971 C 227.698 80.323,228.898 72.685,229.789 66.861 C 230.268 63.730,230.984 59.131,231.379 56.642 C 231.774 54.153,232.626 48.701,233.273 44.526 C 237.240 18.908,236.771 20.872,239.478 18.555 C 241.784 16.581,240.160 16.668,273.590 16.731 C 302.883 16.787,303.848 16.806,304.685 17.350 " stroke="none" fill="#060606" fill-rule="evenodd"></path><path id="path1" d="M0.000 145.985 L 0.000 291.971 200.000 291.971 L 400.000 291.971 400.000 145.985 L 400.000 0.000 200.000 0.000 L 0.000 0.000 0.000 145.985 M199.741 8.763 C 207.599 10.243,210.035 15.723,208.173 27.737 C 207.663 31.029,206.873 36.153,206.416 39.124 C 205.960 42.095,205.047 47.942,204.388 52.117 C 203.728 56.292,202.673 62.993,202.043 67.007 C 201.413 71.022,200.427 77.263,199.852 80.876 C 199.278 84.489,198.426 89.942,197.959 92.993 C 197.492 96.044,196.783 100.577,196.383 103.066 C 195.360 109.427,193.766 119.557,192.545 127.445 C 191.974 131.139,190.997 137.380,190.373 141.314 C 189.750 145.248,188.759 151.555,188.171 155.328 C 187.135 161.982,185.741 170.904,183.950 182.336 C 183.047 188.099,182.063 194.418,179.565 210.511 C 178.755 215.730,177.708 222.431,177.239 225.401 C 176.770 228.372,175.852 234.285,175.199 238.540 C 170.845 266.935,169.736 273.585,169.056 275.399 C 167.673 279.086,163.976 282.661,159.854 284.298 L 157.810 285.109 130.511 285.172 C 98.829 285.244,96.728 285.166,94.058 283.818 C 88.431 280.977,87.061 276.794,88.600 267.153 C 89.022 264.504,89.813 259.445,90.356 255.912 C 90.898 252.380,91.808 246.467,92.376 242.774 C 92.944 239.080,93.934 232.642,94.574 228.467 C 95.215 224.292,96.275 217.460,96.931 213.285 C 97.586 209.109,98.450 203.526,98.851 200.876 C 99.251 198.226,99.768 194.942,100.000 193.577 C 100.232 192.212,100.749 188.927,101.149 186.277 C 101.549 183.628,102.476 177.650,103.210 172.993 C 104.501 164.801,105.419 158.928,107.569 145.109 C 108.131 141.496,109.126 135.124,109.780 130.949 C 110.434 126.774,111.354 120.861,111.825 117.810 C 112.296 114.759,113.285 108.453,114.024 103.796 C 114.763 99.139,115.812 92.438,116.356 88.905 C 116.900 85.372,117.816 79.460,118.392 75.766 C 118.968 72.073,119.821 66.555,120.288 63.504 C 120.756 60.453,121.464 55.920,121.862 53.431 C 122.561 49.069,123.330 44.142,125.852 27.883 C 126.499 23.708,127.229 19.676,127.474 18.924 C 128.964 14.334,134.269 9.728,139.124 8.809 C 141.170 8.422,197.700 8.379,199.741 8.763 M307.478 10.586 C 313.401 13.496,314.684 17.870,312.895 29.051 C 312.329 32.584,311.388 38.562,310.803 42.336 C 310.218 46.109,309.220 52.482,308.585 56.496 C 307.950 60.511,306.975 66.686,306.419 70.219 C 304.485 82.501,303.329 89.823,302.201 96.934 C 301.577 100.869,300.729 106.255,300.317 108.905 C 299.611 113.449,299.052 117.032,295.899 137.226 C 294.718 144.787,294.180 148.246,291.809 163.504 C 291.397 166.153,290.681 170.818,290.217 173.869 C 289.753 176.920,288.849 182.766,288.207 186.861 C 287.565 190.956,286.313 198.971,285.424 204.672 C 284.536 210.372,283.414 217.467,282.931 220.438 C 282.009 226.115,280.287 236.955,278.248 249.927 C 273.964 277.188,273.835 277.582,267.940 281.456 C 264.125 283.963,266.527 283.817,230.511 283.728 L 198.686 283.650 196.938 282.791 C 191.083 279.917,189.823 275.820,191.498 265.109 C 192.750 257.103,194.592 245.364,195.781 237.810 C 196.337 234.277,197.248 228.431,197.805 224.818 C 198.362 221.204,199.345 214.898,199.990 210.803 C 201.670 200.134,205.426 176.001,206.421 169.489 C 206.888 166.438,207.595 161.905,207.994 159.416 C 208.392 156.927,209.197 151.803,209.782 148.029 C 210.368 144.255,211.289 138.343,211.829 134.891 C 212.369 131.438,213.288 125.526,213.871 121.752 C 215.100 113.796,216.862 102.616,218.104 94.891 C 218.582 91.920,219.633 85.219,220.440 80.000 C 221.247 74.781,222.292 68.080,222.763 65.109 C 223.233 62.139,224.094 56.620,224.676 52.847 C 225.258 49.073,226.240 42.766,226.859 38.832 C 227.478 34.898,228.329 29.445,228.749 26.715 C 229.170 23.985,229.767 20.890,230.077 19.836 C 231.278 15.751,235.167 11.905,239.691 10.331 L 241.606 9.664 273.723 9.723 L 305.839 9.781 307.478 10.586 M139.365 16.245 C 135.630 17.568,134.305 20.000,133.152 27.645 C 132.311 33.221,131.297 39.751,128.763 55.912 C 128.109 60.088,127.188 66.000,126.717 69.051 C 126.247 72.102,125.262 78.409,124.530 83.066 C 123.798 87.723,122.878 93.635,122.487 96.204 C 121.695 101.405,119.979 112.356,118.392 122.336 C 117.817 125.949,116.898 131.861,116.348 135.474 C 115.799 139.088,114.750 145.854,114.017 150.511 C 113.285 155.168,112.230 161.934,111.674 165.547 C 111.117 169.161,110.136 175.467,109.494 179.562 C 108.851 183.657,107.933 189.569,107.452 192.701 C 106.972 195.832,105.983 202.204,105.254 206.861 C 102.257 226.024,101.838 228.705,101.020 234.015 C 100.549 237.066,99.641 242.978,99.002 247.153 C 98.362 251.328,97.579 256.387,97.262 258.394 C 96.945 260.401,96.258 264.751,95.737 268.061 L 94.789 274.078 95.497 275.486 C 96.847 278.174,94.205 277.975,127.445 277.887 C 160.408 277.800,157.912 277.981,160.389 275.504 C 162.166 273.727,162.580 272.543,163.492 266.634 C 163.955 263.627,164.674 259.000,165.088 256.350 C 166.101 249.881,167.633 240.027,169.062 230.803 C 171.293 216.399,172.281 210.052,173.268 203.796 C 173.813 200.343,174.739 194.431,175.326 190.657 C 175.913 186.883,176.907 180.577,177.535 176.642 C 178.164 172.708,179.407 164.759,180.299 158.978 C 182.215 146.549,183.549 137.988,184.938 129.197 C 185.496 125.664,186.290 120.606,186.703 117.956 C 187.115 115.307,187.778 111.102,188.176 108.613 C 188.574 106.124,189.563 99.818,190.372 94.599 C 191.182 89.380,192.176 83.007,192.581 80.438 C 192.986 77.869,193.836 72.482,194.470 68.467 C 196.169 57.699,197.190 51.171,198.833 40.584 C 199.643 35.365,200.716 28.529,201.217 25.393 L 202.128 19.691 201.527 18.331 C 200.304 15.567,202.772 15.763,169.574 15.789 C 144.768 15.809,140.408 15.875,139.365 16.245 M242.035 17.086 C 240.397 17.597,238.485 19.200,237.491 20.896 C 236.699 22.247,236.877 21.249,233.273 44.526 C 232.626 48.701,231.774 54.153,231.379 56.642 C 230.984 59.131,230.268 63.730,229.789 66.861 C 228.898 72.685,227.698 80.323,225.843 91.971 C 225.268 95.584,224.346 101.431,223.794 104.964 C 223.243 108.496,222.259 114.737,221.609 118.832 C 220.958 122.927,220.033 128.905,219.552 132.117 C 219.071 135.328,218.418 139.533,218.100 141.460 C 217.783 143.387,216.863 149.234,216.055 154.453 C 214.201 166.437,213.419 171.459,211.991 180.584 C 210.892 187.598,210.344 191.117,207.446 209.781 C 206.723 214.438,205.739 220.745,205.261 223.796 C 204.401 229.278,203.019 238.182,201.001 251.241 C 200.430 254.934,199.438 261.166,198.797 265.088 C 197.473 273.180,197.489 273.966,199.003 275.480 C 200.399 276.876,198.950 276.821,231.825 276.727 L 261.752 276.642 263.316 275.776 C 266.849 273.819,267.366 272.614,268.896 262.774 C 269.992 255.721,271.025 249.199,273.425 234.161 C 274.001 230.547,274.925 224.701,275.479 221.168 C 276.032 217.635,276.940 211.854,277.498 208.321 C 278.055 204.788,279.047 198.482,279.702 194.307 C 280.357 190.131,281.357 183.759,281.926 180.146 C 282.494 176.533,283.405 170.686,283.950 167.153 C 285.529 156.910,286.907 148.093,288.033 141.022 C 288.608 137.409,289.593 131.102,290.221 127.007 C 290.849 122.912,291.898 116.146,292.551 111.971 C 293.204 107.796,294.190 101.489,294.740 97.956 C 295.291 94.423,296.278 88.182,296.934 84.088 C 297.591 79.993,298.511 74.146,298.980 71.095 C 299.448 68.044,300.364 62.197,301.015 58.102 C 302.295 50.054,304.070 38.684,305.391 30.073 C 305.847 27.102,306.370 23.852,306.553 22.850 C 307.050 20.127,306.511 18.540,304.685 17.350 C 303.528 16.597,244.404 16.348,242.035 17.086 " stroke="none" fill="#fbfbfb" fill-rule="evenodd"></path></g></svg>